<?xml version="1.0"?>
<svg xmlns="http://www.w3.org/2000/svg" viewBox="0 -68 511.99983 511" width="512px" height="512px"><path d="m507.726562 361.9375c-.453124-.214844-46.109374-22.253906-93.996093-60.414062-18.421875-14.683594-38.789063-33.097657-57.078125-54.582032 27.460937-26.949218 43.128906-64.097656 43.128906-102.660156 0-40.324219-17.09375-79.046875-46.902344-106.242188-3.0625-2.796874-7.820312-2.578124-10.613281.488282-2.800781 3.066406-2.582031 7.816406.484375 10.613281 26.691406 24.355469 42 59.03125 42 95.140625 0 34.054688-13.652344 66.882812-37.617188 90.929688-20.792968-26.90625-37.617187-58.023438-43.65625-92.238282-.632812-3.589844-3.753906-6.207031-7.398437-6.207031h-80.15625c-3.8125 0-7.019531 2.851563-7.464844 6.636719-4.097656 34.84375-20.566406 66.484375-41.648437 93.726562-25.214844-24.238281-39.5625-57.722656-39.5625-92.847656 0-70.996094 57.757812-128.753906 128.753906-128.753906 21.148438 0 42.117188 5.238281 60.636719 15.144531 3.664062 1.957031 8.210937.578125 10.171875-3.082031 1.957031-3.660156.578125-8.210938-3.082032-10.171875-20.691406-11.066407-44.113281-16.917969-67.726562-16.917969-79.28125 0-143.78125 64.5-143.78125 143.78125 0 39.632812 16.359375 77.394531 45.0625 104.515625-17.75 20.671875-37.710938 38.4375-55.953125 52.6875-48.84375 38.148437-96.46875 60.183594-96.945313 60.402344-3.769531 1.730469-5.425781 6.191406-3.695312 9.964843 1.261719 2.753907 3.984375 4.382813 6.832031 4.382813 1.046875 0 2.113281-.21875 3.125-.683594 1.996094-.917969 49.472657-22.863281 99.683594-62.027343 29.625-23.105469 53.953125-47.40625 72.308594-72.21875 3.175781-4.292969 6.148437-8.601563 8.96875-12.929688l11.410156 9.78125c3.851563 3.300781 9.988281 1.78125 11.867187-2.914062 1.988282-4.972657 9.726563-19.808594 18.875-22.652344 2.035157-.628906 5.296876-1.105469 10.058594 2.066406l24.046875 16.03125c2.980469 1.988281 6.949219 1.59375 9.480469-.9375l13.527344-13.53125 26.5 2.527344c4.636718 7.582031 9.769531 15.121094 15.414062 22.609375 18.664063 24.773437 42.832032 49.039062 71.832032 72.121093 49.199218 39.15625 94.710937 61.105469 96.625 62.019532 3.742187 1.792968 8.226562.207031 10.019531-3.535156 1.792969-3.742188.210937-8.230469-3.535157-10.023438zm-218.949218-161.011719c-2.226563-.21875-4.441406.578125-6.027344 2.167969l-11.675781 11.671875-18.921875-12.613281c-7.371094-4.914063-15.277344-6.269532-22.851563-3.914063-11.179687 3.472657-19.207031 14.214844-23.828125 22.230469l-5.953125-5.101562c11.847657-20.972657 19.546875-42.246094 22.945313-63.570313h67.421875c3.632812 17.070313 9.824219 34.113281 18.507812 50.996094zm0 0" fill="#D80027"/></svg>
